# ProBuilder 4.2.3
# https://unity3d.com/unity/features/worldbuilding/probuilder
# 8/23/2020 5:08:45 PM

mtllib ./lights.mtl
o lights

g Light
v 0 0 0
v 0 0.005 0
v 0.06622481 0 0.3329346
v 0.06622481 0.005 0.3329346
v 0.2548171 0 0.6151829
v 0.2548171 0.005 0.6151829
v 0.5370654 0 0.8037752
v 0.5370654 0.005 0.8037752
v 0.8700001 0 0.87
v 0.8700001 0.005 0.87
v 1.202935 0 0.8037753
v 1.202935 0.005 0.8037753
v 1.485183 0 0.6151829
v 1.485183 0.005 0.6151829
v 1.673775 0 0.3329346
v 1.673775 0.005 0.3329346
v 1.74 0 -7.605782E-08
v 1.74 0.005 -7.605782E-08
v 1.673775 0 -0.3329346
v 1.673775 0.005 -0.3329346
v 1.485183 0 -0.6151828
v 1.485183 0.005 -0.6151828
v 1.202935 0 -0.8037752
v 1.202935 0.005 -0.8037752
v 0.87 0 -0.87
v 0.87 0.005 -0.87
v 0.5370653 0 -0.8037751
v 0.5370653 0.005 -0.8037751
v 0.2548172 0 -0.615183
v 0.2548172 0.005 -0.615183
v 0.06622475 0 -0.3329346
v 0.06622475 0.005 -0.3329346
v 0.87 0 0
v 0.87 0.005 0
v -2.053819 0.00112245 1.605028
v -2.053819 0.003928508 1.605028
v -2.016654 0.00112245 1.791871
v -2.016654 0.003928508 1.791871
v -1.910816 0.00112245 1.950268
v -1.910816 0.003928508 1.950268
v -1.752418 0.00112245 2.056106
v -1.752418 0.003928508 2.056106
v -1.565576 0.00112245 2.093271
v -1.565576 0.003928508 2.093271
v -1.378734 0.00112245 2.056106
v -1.378734 0.003928508 2.056106
v -1.220336 0.00112245 1.950268
v -1.220336 0.003928508 1.950268
v -1.114498 0.00112245 1.791871
v -1.114498 0.003928508 1.791871
v -1.077333 0.00112245 1.605028
v -1.077333 0.003928508 1.605028
v -1.114498 0.00112245 1.418186
v -1.114498 0.003928508 1.418186
v -1.220336 0.00112245 1.259788
v -1.220336 0.003928508 1.259788
v -1.378733 0.00112245 1.153951
v -1.378733 0.003928508 1.153951
v -1.565576 0.00112245 1.116785
v -1.565576 0.003928508 1.116785
v -1.752419 0.00112245 1.153951
v -1.752419 0.003928508 1.153951
v -1.910816 0.00112245 1.259788
v -1.910816 0.003928508 1.259788
v -2.016654 0.00112245 1.418186
v -2.016654 0.003928508 1.418186
v -1.565576 0.00112245 1.605028
v -1.565576 0.003928508 1.605028
v -1.004377 0.00112245 3.148325
v -1.004377 0.003928508 3.148325
v -0.967212 0.00112245 3.335167
v -0.967212 0.003928508 3.335167
v -0.8613742 0.00112245 3.493565
v -0.8613742 0.003928508 3.493565
v -0.7029769 0.00112245 3.599402
v -0.7029769 0.003928508 3.599402
v -0.5161343 0.00112245 3.636568
v -0.5161343 0.003928508 3.636568
v -0.329292 0.00112245 3.599402
v -0.329292 0.003928508 3.599402
v -0.1708946 0.00112245 3.493565
v -0.1708946 0.003928508 3.493565
v -0.0650568 0.00112245 3.335167
v -0.0650568 0.003928508 3.335167
v -0.02789152 0.00112245 3.148325
v -0.02789152 0.003928508 3.148325
v -0.0650568 0.00112245 2.961483
v -0.0650568 0.003928508 2.961483
v -0.1708945 0.00112245 2.803085
v -0.1708945 0.003928508 2.803085
v -0.3292919 0.00112245 2.697247
v -0.3292919 0.003928508 2.697247
v -0.5161343 0.00112245 2.660082
v -0.5161343 0.003928508 2.660082
v -0.7029769 0.00112245 2.697247
v -0.7029769 0.003928508 2.697247
v -0.8613742 0.00112245 2.803085
v -0.8613742 0.003928508 2.803085
v -0.967212 0.00112245 2.961483
v -0.967212 0.003928508 2.961483
v -0.5161343 0.00112245 3.148325
v -0.5161343 0.003928508 3.148325
v 0.3817835 0.00112245 1.605028
v 0.3817835 0.003928508 1.605028
v 0.4189488 0.00112245 1.791871
v 0.4189488 0.003928508 1.791871
v 0.5247865 0.00112245 1.950268
v 0.5247865 0.003928508 1.950268
v 0.6831839 0.00112245 2.056106
v 0.6831839 0.003928508 2.056106
v 0.8700264 0.00112245 2.093271
v 0.8700264 0.003928508 2.093271
v 1.056869 0.00112245 2.056106
v 1.056869 0.003928508 2.056106
v 1.215266 0.00112245 1.950268
v 1.215266 0.003928508 1.950268
v 1.321104 0.00112245 1.791871
v 1.321104 0.003928508 1.791871
v 1.358269 0.00112245 1.605028
v 1.358269 0.003928508 1.605028
v 1.321104 0.00112245 1.418186
v 1.321104 0.003928508 1.418186
v 1.215266 0.00112245 1.259788
v 1.215266 0.003928508 1.259788
v 1.056869 0.00112245 1.153951
v 1.056869 0.003928508 1.153951
v 0.8700264 0.00112245 1.116785
v 0.8700264 0.003928508 1.116785
v 0.6831838 0.00112245 1.153951
v 0.6831838 0.003928508 1.153951
v 0.5247865 0.00112245 1.259788
v 0.5247865 0.003928508 1.259788
v 0.4189487 0.00112245 1.418186
v 0.4189487 0.003928508 1.418186
v 0.8700264 0.00112245 1.605028
v 0.8700264 0.003928508 1.605028
v 1.588361 0.00112245 3.2774
v 1.588361 0.003928508 3.2774
v 1.625526 0.00112245 3.464243
v 1.625526 0.003928508 3.464243
v 1.731364 0.00112245 3.62264
v 1.731364 0.003928508 3.62264
v 1.889761 0.00112245 3.728478
v 1.889761 0.003928508 3.728478
v 2.076604 0.00112245 3.765643
v 2.076604 0.003928508 3.765643
v 2.263446 0.00112245 3.728478
v 2.263446 0.003928508 3.728478
v 2.421844 0.00112245 3.62264
v 2.421844 0.003928508 3.62264
v 2.527681 0.00112245 3.464243
v 2.527681 0.003928508 3.464243
v 2.564847 0.00112245 3.2774
v 2.564847 0.003928508 3.2774
v 2.527681 0.00112245 3.090558
v 2.527681 0.003928508 3.090558
v 2.421844 0.00112245 2.932161
v 2.421844 0.003928508 2.932161
v 2.263446 0.00112245 2.826323
v 2.263446 0.003928508 2.826323
v 2.076604 0.00112245 2.789158
v 2.076604 0.003928508 2.789158
v 1.889761 0.00112245 2.826323
v 1.889761 0.003928508 2.826323
v 1.731364 0.00112245 2.932161
v 1.731364 0.003928508 2.932161
v 1.625526 0.00112245 3.090558
v 1.625526 0.003928508 3.090558
v 2.076604 0.00112245 3.2774
v 2.076604 0.003928508 3.2774
v 2.677086 0.00112245 1.605028
v 2.677086 0.003928508 1.605028
v 2.714252 0.00112245 1.791871
v 2.714252 0.003928508 1.791871
v 2.820089 0.00112245 1.950268
v 2.820089 0.003928508 1.950268
v 2.978487 0.00112245 2.056106
v 2.978487 0.003928508 2.056106
v 3.165329 0.00112245 2.093271
v 3.165329 0.003928508 2.093271
v 3.352172 0.00112245 2.056106
v 3.352172 0.003928508 2.056106
v 3.510569 0.00112245 1.950268
v 3.510569 0.003928508 1.950268
v 3.616407 0.00112245 1.791871
v 3.616407 0.003928508 1.791871
v 3.653572 0.00112245 1.605028
v 3.653572 0.003928508 1.605028
v 3.616407 0.00112245 1.418186
v 3.616407 0.003928508 1.418186
v 3.510569 0.00112245 1.259788
v 3.510569 0.003928508 1.259788
v 3.352172 0.00112245 1.153951
v 3.352172 0.003928508 1.153951
v 3.165329 0.00112245 1.116785
v 3.165329 0.003928508 1.116785
v 2.978487 0.00112245 1.153951
v 2.978487 0.003928508 1.153951
v 2.820089 0.00112245 1.259788
v 2.820089 0.003928508 1.259788
v 2.714252 0.00112245 1.418186
v 2.714252 0.003928508 1.418186
v 3.165329 0.00112245 1.605028
v 3.165329 0.003928508 1.605028

vt 0 0
vt 0 0.005
vt 0.3394572 0
vt 0.3394572 0.005
vt 0.3136175 0
vt 0.3136175 0.005
vt 0.6530747 0
vt 0.6530747 0.005
vt 0.5536501 0
vt 0.5536501 0.005
vt 0.8931072 0
vt 0.8931072 0.005
vt 0.6835546 0
vt 0.6835546 0.005
vt 1.023012 0
vt 1.023012 0.005
vt -0.3394572 0
vt -0.3394572 0.005
vt -0.6530746 0
vt -0.6530746 0.005
vt -0.3136175 0
vt -0.3136175 0.005
vt -0.8931069 0
vt -0.8931069 0.005
vt -0.5536497 0
vt -0.5536497 0.005
vt -1.023012 0
vt -1.023012 0.005
vt -0.6835547 0
vt -0.6835547 0.005
vt 0.87 0
vt 0.06622481 0.3329346
vt -0.87 0
vt -0.06622481 0.3329346
vt 0.2548171 0.6151829
vt -0.2548171 0.6151829
vt 0.5370654 0.8037752
vt -0.5370654 0.8037752
vt 0.8700001 0.87
vt -0.8700001 0.87
vt 1.202935 0.8037753
vt -1.202935 0.8037753
vt 1.485183 0.6151829
vt -1.485183 0.6151829
vt 1.673775 0.3329346
vt -1.673775 0.3329346
vt 1.74 -7.605782E-08
vt -1.74 -7.605782E-08
vt 1.673775 -0.3329346
vt -1.673775 -0.3329346
vt 1.485183 -0.6151828
vt -1.485183 -0.6151828
vt 1.202935 -0.8037752
vt -1.202935 -0.8037752
vt 0.87 -0.87
vt -0.87 -0.87
vt 0.5370653 -0.8037751
vt -0.5370653 -0.8037751
vt 0.2548172 -0.615183
vt -0.2548172 -0.615183
vt 0.06622475 -0.3329346
vt -0.06622475 -0.3329346
vt 0.8699999 0
vt -0.8699999 2.384186E-07
vt -0.8699998 0.8700001
vt 0.8702887 -0.8699425
vt 0.06617606 0.3330643
vt -0.5369351 0.8038237
vt 0.8699999 -0.8699999
vt -0.8699999 -0.8699999
vt 0.8699999 -0.8700001
vt 0.8699999 0.8699996
vt -0.8699999 0.8699996
vt 0.8700001 0.8699996
vt -0.8700001 0.8699996
vt 1.203064 0.8038242
vt -1.673824 0.3330653
vt 0.8699999 0.8700001
vt -0.8699999 -0.8700001

vn -0.9807853 0 0.1950903
vn -0.8314695 0 0.5555704
vn -0.5555704 0 0.8314695
vn -0.1950903 0 0.9807853
vn 0.1950903 0 0.9807853
vn 0.5555703 0 0.8314695
vn 0.8314695 0 0.5555704
vn 0.9807853 0 0.1950902
vn 0.9807853 0 -0.1950904
vn 0.8314697 0 -0.5555702
vn 0.5555705 0 -0.8314695
vn 0.1950902 0 -0.9807853
vn -0.1950904 0 -0.9807853
vn -0.5555702 0 -0.8314696
vn -0.8314695 0 -0.5555704
vn -0.9807853 0 -0.1950902
vn 0 -1 0
vn 0 1 0

usemtl EmissiveWhite
f 1/1/17 33/31/17 3/32/17
f 3/32/17 33/31/17 5/35/17
f 5/35/17 33/31/17 7/37/17
f 7/37/17 33/31/17 9/39/17
f 9/39/17 33/31/17 11/41/17
f 11/41/17 33/31/17 13/43/17
f 13/43/17 33/31/17 15/45/17
f 15/45/17 33/31/17 17/47/17
f 17/47/17 33/31/17 19/49/17
f 19/49/17 33/31/17 21/51/17
f 21/51/17 33/31/17 23/53/17
f 23/53/17 33/31/17 25/55/17
f 25/55/17 33/31/17 27/57/17
f 27/57/17 33/31/17 29/59/17
f 29/59/17 33/31/17 31/61/17
f 31/61/17 33/31/17 1/1/17
f 4/34/18 34/33/18 2/1/18
f 6/36/18 34/33/18 4/34/18
f 8/38/18 34/33/18 6/36/18
f 10/40/18 34/33/18 8/38/18
f 12/42/18 34/33/18 10/40/18
f 14/44/18 34/33/18 12/42/18
f 16/46/18 34/33/18 14/44/18
f 18/48/18 34/33/18 16/46/18
f 20/50/18 34/33/18 18/48/18
f 22/52/18 34/33/18 20/50/18
f 24/54/18 34/33/18 22/52/18
f 26/56/18 34/33/18 24/54/18
f 28/58/18 34/33/18 26/56/18
f 30/60/18 34/33/18 28/58/18
f 32/62/18 34/33/18 30/60/18
f 2/1/18 34/33/18 32/62/18
f 35/1/17 67/31/17 37/32/17
f 37/32/17 67/63/17 39/35/17
f 39/35/17 67/31/17 41/37/17
f 41/37/17 67/31/17 43/39/17
f 43/39/17 67/31/17 45/41/17
f 45/41/17 67/31/17 47/43/17
f 47/43/17 67/31/17 49/45/17
f 49/45/17 67/31/17 51/47/17
f 51/47/17 67/31/17 53/49/17
f 53/49/17 67/31/17 55/51/17
f 55/51/17 67/63/17 57/53/17
f 57/53/17 67/31/17 59/55/17
f 59/66/17 67/63/17 61/57/17
f 61/57/17 67/31/17 63/59/17
f 63/59/17 67/63/17 65/61/17
f 65/61/17 67/31/17 35/1/17
f 38/34/18 68/33/18 36/1/18
f 40/36/18 68/64/18 38/34/18
f 42/38/18 68/33/18 40/36/18
f 44/40/18 68/33/18 42/38/18
f 46/42/18 68/33/18 44/65/18
f 48/44/18 68/33/18 46/42/18
f 50/46/18 68/33/18 48/44/18
f 52/48/18 68/33/18 50/46/18
f 54/50/18 68/33/18 52/48/18
f 56/52/18 68/33/18 54/50/18
f 58/54/18 68/64/18 56/52/18
f 60/56/18 68/64/18 58/54/18
f 62/58/18 68/33/18 60/56/18
f 64/60/18 68/64/18 62/58/18
f 66/62/18 68/64/18 64/60/18
f 36/1/18 68/33/18 66/62/18
f 69/1/17 101/31/17 71/32/17
f 71/67/17 101/63/17 73/35/17
f 73/35/17 101/63/17 75/37/17
f 75/37/17 101/31/17 77/39/17
f 77/39/17 101/31/17 79/41/17
f 79/41/17 101/31/17 81/43/17
f 81/43/17 101/63/17 83/45/17
f 83/45/17 101/31/17 85/47/17
f 85/47/17 101/31/17 87/49/17
f 87/49/17 101/63/17 89/51/17
f 89/51/17 101/31/17 91/53/17
f 91/53/17 101/63/17 93/69/17
f 93/69/17 101/63/17 95/57/17
f 95/57/17 101/63/17 97/59/17
f 97/59/17 101/31/17 99/61/17
f 99/61/17 101/31/17 69/1/17
f 72/34/18 102/33/18 70/1/18
f 74/36/18 102/33/18 72/34/18
f 76/68/18 102/33/18 74/36/18
f 78/65/18 102/33/18 76/38/18
f 80/42/18 102/33/18 78/65/18
f 82/44/18 102/33/18 80/42/18
f 84/46/18 102/64/18 82/44/18
f 86/48/18 102/33/18 84/46/18
f 88/50/18 102/33/18 86/48/18
f 90/52/18 102/64/18 88/50/18
f 92/54/18 102/33/18 90/52/18
f 94/70/18 102/64/18 92/54/18
f 96/58/18 102/64/18 94/70/18
f 98/60/18 102/64/18 96/58/18
f 100/62/18 102/33/18 98/60/18
f 70/1/18 102/33/18 100/62/18
f 103/1/17 135/31/17 105/32/17
f 105/32/17 135/63/17 107/35/17
f 107/35/17 135/31/17 109/37/17
f 109/37/17 135/63/17 111/39/17
f 111/39/17 135/31/17 113/41/17
f 113/41/17 135/31/17 115/43/17
f 115/43/17 135/31/17 117/45/17
f 117/45/17 135/31/17 119/47/17
f 119/47/17 135/31/17 121/49/17
f 121/49/17 135/31/17 123/51/17
f 123/51/17 135/31/17 125/53/17
f 125/53/17 135/63/17 127/71/17
f 127/66/17 135/63/17 129/57/17
f 129/57/17 135/31/17 131/59/17
f 131/59/17 135/31/17 133/61/17
f 133/61/17 135/31/17 103/1/17
f 106/34/18 136/33/18 104/1/18
f 108/36/18 136/33/18 106/34/18
f 110/38/18 136/33/18 108/36/18
f 112/40/18 136/33/18 110/38/18
f 114/42/18 136/33/18 112/40/18
f 116/44/18 136/33/18 114/42/18
f 118/46/18 136/33/18 116/44/18
f 120/48/18 136/33/18 118/46/18
f 122/50/18 136/33/18 120/48/18
f 124/52/18 136/33/18 122/50/18
f 126/54/18 136/33/18 124/52/18
f 128/56/18 136/64/18 126/54/18
f 130/58/18 136/33/18 128/56/18
f 132/60/18 136/64/18 130/58/18
f 134/62/18 136/64/18 132/60/18
f 104/1/18 136/33/18 134/62/18
f 137/1/17 169/31/17 139/32/17
f 139/67/17 169/63/17 141/35/17
f 141/35/17 169/63/17 143/37/17
f 143/37/17 169/63/17 145/72/17
f 145/74/17 169/31/17 147/41/17
f 147/76/17 169/63/17 149/43/17
f 149/43/17 169/63/17 151/45/17
f 151/45/17 169/31/17 153/47/17
f 153/47/17 169/31/17 155/49/17
f 155/49/17 169/63/17 157/51/17
f 157/51/17 169/63/17 159/53/17
f 159/53/17 169/63/17 161/69/17
f 161/69/17 169/63/17 163/57/17
f 163/57/17 169/63/17 165/59/17
f 165/59/17 169/63/17 167/61/17
f 167/61/17 169/31/17 137/1/17
f 140/34/18 170/33/18 138/1/18
f 142/36/18 170/64/18 140/34/18
f 144/68/18 170/33/18 142/36/18
f 146/73/18 170/64/18 144/38/18
f 148/42/18 170/33/18 146/75/18
f 150/44/18 170/64/18 148/42/18
f 152/77/18 170/33/18 150/44/18
f 154/48/18 170/33/18 152/46/18
f 156/50/18 170/33/18 154/48/18
f 158/52/18 170/64/18 156/50/18
f 160/54/18 170/64/18 158/52/18
f 162/70/18 170/64/18 160/54/18
f 164/58/18 170/64/18 162/70/18
f 166/60/18 170/64/18 164/58/18
f 168/62/18 170/33/18 166/60/18
f 138/1/18 170/33/18 168/62/18
f 171/1/17 203/63/17 173/32/17
f 173/32/17 203/31/17 175/35/17
f 175/35/17 203/31/17 177/37/17
f 177/37/17 203/63/17 179/78/17
f 179/39/17 203/31/17 181/41/17
f 181/41/17 203/63/17 183/43/17
f 183/43/17 203/63/17 185/45/17
f 185/45/17 203/31/17 187/47/17
f 187/47/17 203/31/17 189/49/17
f 189/49/17 203/63/17 191/51/17
f 191/51/17 203/63/17 193/53/17
f 193/53/17 203/31/17 195/55/17
f 195/71/17 203/63/17 197/57/17
f 197/57/17 203/31/17 199/59/17
f 199/59/17 203/31/17 201/61/17
f 201/61/17 203/63/17 171/1/17
f 174/34/18 204/64/18 172/1/18
f 176/36/18 204/33/18 174/34/18
f 178/38/18 204/33/18 176/36/18
f 180/65/18 204/64/18 178/38/18
f 182/42/18 204/33/18 180/40/18
f 184/44/18 204/64/18 182/42/18
f 186/46/18 204/64/18 184/44/18
f 188/48/18 204/33/18 186/46/18
f 190/50/18 204/33/18 188/48/18
f 192/52/18 204/64/18 190/50/18
f 194/54/18 204/64/18 192/52/18
f 196/56/18 204/33/18 194/54/18
f 198/58/18 204/64/18 196/79/18
f 200/60/18 204/33/18 198/58/18
f 202/62/18 204/33/18 200/60/18
f 172/1/18 204/64/18 202/62/18
f 4/4/1 2/2/1 1/1/1
f 1/1/1 3/3/1 4/4/1
f 6/8/2 4/6/2 3/5/2
f 3/5/2 5/7/2 6/8/2
f 8/12/3 6/10/3 5/9/3
f 5/9/3 7/11/3 8/12/3
f 10/16/4 8/14/4 7/13/4
f 7/13/4 9/15/4 10/16/4
f 12/16/5 10/14/5 9/13/5
f 9/13/5 11/15/5 12/16/5
f 14/12/6 12/10/6 11/9/6
f 11/9/6 13/11/6 14/12/6
f 16/8/7 14/6/7 13/5/7
f 13/5/7 15/7/7 16/8/7
f 18/4/8 16/2/8 15/1/8
f 15/1/8 17/3/8 18/4/8
f 20/2/9 18/18/9 17/17/9
f 17/17/9 19/1/9 20/2/9
f 22/22/10 20/20/10 19/19/10
f 19/19/10 21/21/10 22/22/10
f 24/26/11 22/24/11 21/23/11
f 21/23/11 23/25/11 24/26/11
f 26/30/12 24/28/12 23/27/12
f 23/27/12 25/29/12 26/30/12
f 28/30/13 26/28/13 25/27/13
f 25/27/13 27/29/13 28/30/13
f 30/26/14 28/24/14 27/23/14
f 27/23/14 29/25/14 30/26/14
f 32/22/15 30/20/15 29/19/15
f 29/19/15 31/21/15 32/22/15
f 2/2/16 32/18/16 31/17/16
f 31/17/16 1/1/16 2/2/16
f 38/4/1 36/2/1 35/1/1
f 35/1/1 37/3/1 38/4/1
f 40/8/2 38/6/2 37/5/2
f 37/5/2 39/7/2 40/8/2
f 42/12/3 40/10/3 39/9/3
f 39/9/3 41/11/3 42/12/3
f 44/16/4 42/14/4 41/13/4
f 41/13/4 43/15/4 44/16/4
f 46/16/5 44/14/5 43/13/5
f 43/13/5 45/15/5 46/16/5
f 48/12/6 46/10/6 45/9/6
f 45/9/6 47/11/6 48/12/6
f 50/8/7 48/6/7 47/5/7
f 47/5/7 49/7/7 50/8/7
f 52/4/8 50/2/8 49/1/8
f 49/1/8 51/3/8 52/4/8
f 54/2/9 52/18/9 51/17/9
f 51/17/9 53/1/9 54/2/9
f 56/22/10 54/20/10 53/19/10
f 53/19/10 55/21/10 56/22/10
f 58/26/11 56/24/11 55/23/11
f 55/23/11 57/25/11 58/26/11
f 60/30/12 58/28/12 57/27/12
f 57/27/12 59/29/12 60/30/12
f 62/30/13 60/28/13 59/27/13
f 59/27/13 61/29/13 62/30/13
f 64/26/14 62/24/14 61/23/14
f 61/23/14 63/25/14 64/26/14
f 66/22/15 64/20/15 63/19/15
f 63/19/15 65/21/15 66/22/15
f 36/2/16 66/18/16 65/17/16
f 65/17/16 35/1/16 36/2/16
f 72/4/1 70/2/1 69/1/1
f 69/1/1 71/3/1 72/4/1
f 74/8/2 72/6/2 71/5/2
f 71/5/2 73/7/2 74/8/2
f 76/12/3 74/10/3 73/9/3
f 73/9/3 75/11/3 76/12/3
f 78/16/4 76/14/4 75/13/4
f 75/13/4 77/15/4 78/16/4
f 80/16/5 78/14/5 77/13/5
f 77/13/5 79/15/5 80/16/5
f 82/12/6 80/10/6 79/9/6
f 79/9/6 81/11/6 82/12/6
f 84/8/7 82/6/7 81/5/7
f 81/5/7 83/7/7 84/8/7
f 86/4/8 84/2/8 83/1/8
f 83/1/8 85/3/8 86/4/8
f 88/2/9 86/18/9 85/17/9
f 85/17/9 87/1/9 88/2/9
f 90/22/10 88/20/10 87/19/10
f 87/19/10 89/21/10 90/22/10
f 92/26/11 90/24/11 89/23/11
f 89/23/11 91/25/11 92/26/11
f 94/30/12 92/28/12 91/27/12
f 91/27/12 93/29/12 94/30/12
f 96/30/13 94/28/13 93/27/13
f 93/27/13 95/29/13 96/30/13
f 98/26/14 96/24/14 95/23/14
f 95/23/14 97/25/14 98/26/14
f 100/22/15 98/20/15 97/19/15
f 97/19/15 99/21/15 100/22/15
f 70/2/16 100/18/16 99/17/16
f 99/17/16 69/1/16 70/2/16
f 106/4/1 104/2/1 103/1/1
f 103/1/1 105/3/1 106/4/1
f 108/8/2 106/6/2 105/5/2
f 105/5/2 107/7/2 108/8/2
f 110/12/3 108/10/3 107/9/3
f 107/9/3 109/11/3 110/12/3
f 112/16/4 110/14/4 109/13/4
f 109/13/4 111/15/4 112/16/4
f 114/16/5 112/14/5 111/13/5
f 111/13/5 113/15/5 114/16/5
f 116/12/6 114/10/6 113/9/6
f 113/9/6 115/11/6 116/12/6
f 118/8/7 116/6/7 115/5/7
f 115/5/7 117/7/7 118/8/7
f 120/4/8 118/2/8 117/1/8
f 117/1/8 119/3/8 120/4/8
f 122/2/9 120/18/9 119/17/9
f 119/17/9 121/1/9 122/2/9
f 124/22/10 122/20/10 121/19/10
f 121/19/10 123/21/10 124/22/10
f 126/26/11 124/24/11 123/23/11
f 123/23/11 125/25/11 126/26/11
f 128/30/12 126/28/12 125/27/12
f 125/27/12 127/29/12 128/30/12
f 130/30/13 128/28/13 127/27/13
f 127/27/13 129/29/13 130/30/13
f 132/26/14 130/24/14 129/23/14
f 129/23/14 131/25/14 132/26/14
f 134/22/15 132/20/15 131/19/15
f 131/19/15 133/21/15 134/22/15
f 104/2/16 134/18/16 133/17/16
f 133/17/16 103/1/16 104/2/16
f 140/4/1 138/2/1 137/1/1
f 137/1/1 139/3/1 140/4/1
f 142/8/2 140/6/2 139/5/2
f 139/5/2 141/7/2 142/8/2
f 144/12/3 142/10/3 141/9/3
f 141/9/3 143/11/3 144/12/3
f 146/16/4 144/14/4 143/13/4
f 143/13/4 145/15/4 146/16/4
f 148/16/5 146/14/5 145/13/5
f 145/13/5 147/15/5 148/16/5
f 150/12/6 148/10/6 147/9/6
f 147/9/6 149/11/6 150/12/6
f 152/8/7 150/6/7 149/5/7
f 149/5/7 151/7/7 152/8/7
f 154/4/8 152/2/8 151/1/8
f 151/1/8 153/3/8 154/4/8
f 156/2/9 154/18/9 153/17/9
f 153/17/9 155/1/9 156/2/9
f 158/22/10 156/20/10 155/19/10
f 155/19/10 157/21/10 158/22/10
f 160/26/11 158/24/11 157/23/11
f 157/23/11 159/25/11 160/26/11
f 162/30/12 160/28/12 159/27/12
f 159/27/12 161/29/12 162/30/12
f 164/30/13 162/28/13 161/27/13
f 161/27/13 163/29/13 164/30/13
f 166/26/14 164/24/14 163/23/14
f 163/23/14 165/25/14 166/26/14
f 168/22/15 166/20/15 165/19/15
f 165/19/15 167/21/15 168/22/15
f 138/2/16 168/18/16 167/17/16
f 167/17/16 137/1/16 138/2/16
f 174/4/1 172/2/1 171/1/1
f 171/1/1 173/3/1 174/4/1
f 176/8/2 174/6/2 173/5/2
f 173/5/2 175/7/2 176/8/2
f 178/12/3 176/10/3 175/9/3
f 175/9/3 177/11/3 178/12/3
f 180/16/4 178/14/4 177/13/4
f 177/13/4 179/15/4 180/16/4
f 182/16/5 180/14/5 179/13/5
f 179/13/5 181/15/5 182/16/5
f 184/12/6 182/10/6 181/9/6
f 181/9/6 183/11/6 184/12/6
f 186/8/7 184/6/7 183/5/7
f 183/5/7 185/7/7 186/8/7
f 188/4/8 186/2/8 185/1/8
f 185/1/8 187/3/8 188/4/8
f 190/2/9 188/18/9 187/17/9
f 187/17/9 189/1/9 190/2/9
f 192/22/10 190/20/10 189/19/10
f 189/19/10 191/21/10 192/22/10
f 194/26/11 192/24/11 191/23/11
f 191/23/11 193/25/11 194/26/11
f 196/30/12 194/28/12 193/27/12
f 193/27/12 195/29/12 196/30/12
f 198/30/13 196/28/13 195/27/13
f 195/27/13 197/29/13 198/30/13
f 200/26/14 198/24/14 197/23/14
f 197/23/14 199/25/14 200/26/14
f 202/22/15 200/20/15 199/19/15
f 199/19/15 201/21/15 202/22/15
f 172/2/16 202/18/16 201/17/16
f 201/17/16 171/1/16 172/2/16

