# ProBuilder 4.2.3
# https://unity3d.com/unity/features/worldbuilding/probuilder
# 8/23/2020 5:10:20 PM

mtllib ./Roof.mtl
o Roof

g Roof
v 1.411319E-07 4.209791 5.783789E-08
v 1.411319E-07 4.209791 2.5
v -2.5 4.209791 5.783789E-08
v -2.5 4.209791 2.5
v 1.411319E-07 4.209791 5
v -2.5 4.209791 5
v 1.411319E-07 4.209791 7.5
v -2.5 4.209791 7.5
v 1.411319E-07 4.209791 10
v -2.5 4.209791 10
v -5 4.209791 5.783789E-08
v -5 4.209791 2.5
v -5 4.209791 5
v -5 4.209791 7.5
v -5 4.209791 10
v -7.5 4.209791 5.783789E-08
v -7.5 4.209791 2.5
v -7.5 4.209791 5
v -7.5 4.209791 7.5
v -7.5 4.209791 10
v -10 4.209791 5.783789E-08
v -10 4.209791 2.5
v -10 4.209791 5
v -10 4.209791 7.5
v -10 4.209791 10

vt 1.411319E-07 5.783789E-08
vt 1.411319E-07 2.5
vt -2.5 5.783789E-08
vt -2.5 2.5
vt 1.411319E-07 5
vt -2.5 5
vt 1.411319E-07 7.5
vt -2.5 7.5
vt 1.411319E-07 10
vt -2.5 10
vt -5 5.783789E-08
vt -5 2.5
vt -5 5
vt -5 7.5
vt -5 10
vt -7.5 5.783789E-08
vt -7.5 2.5
vt -7.5 5
vt -7.5 7.5
vt -7.5 10
vt -10 5.783789E-08
vt -10 2.5
vt -10 5
vt -10 7.5
vt -10 10

vn 0 -1 0

usemtl ProBuilderDefault
f 1/1/1 2/2/1 4/4/1 3/3/1
f 2/2/1 5/5/1 6/6/1 4/4/1
f 5/5/1 7/7/1 8/8/1 6/6/1
f 7/7/1 9/9/1 10/10/1 8/8/1
f 3/3/1 4/4/1 12/12/1 11/11/1
f 4/4/1 6/6/1 13/13/1 12/12/1
f 6/6/1 8/8/1 14/14/1 13/13/1
f 8/8/1 10/10/1 15/15/1 14/14/1
f 11/11/1 12/12/1 17/17/1 16/16/1
f 12/12/1 13/13/1 18/18/1 17/17/1
f 13/13/1 14/14/1 19/19/1 18/18/1
f 14/14/1 15/15/1 20/20/1 19/19/1
f 16/16/1 17/17/1 22/22/1 21/21/1
f 17/17/1 18/18/1 23/23/1 22/22/1
f 18/18/1 19/19/1 24/24/1 23/23/1
f 19/19/1 20/20/1 25/25/1 24/24/1

